<?xml version="1.0" standalone="no"?>
<!DOCTYPE svg PUBLIC "-//W3C//DTD SVG 20010904//EN"
 "http://www.w3.org/TR/2001/REC-SVG-20010904/DTD/svg10.dtd">
<svg version="1.0" xmlns="http://www.w3.org/2000/svg"
 width="412.000000pt" height="108.000000pt" viewBox="0 0 412.000000 108.000000"
 preserveAspectRatio="xMidYMid meet">

<g transform="translate(0.000000,108.000000) scale(0.100000,-0.100000)"
fill="#000000" stroke="none">
<path d="M472 958 c-17 -17 -15 -54 4 -72 12 -12 38 -16 115 -16 l100 0 -31
-39 -31 -39 -46 14 c-98 30 -226 5 -316 -62 -186 -137 -196 -423 -22 -583 72
-65 145 -93 245 -92 41 0 94 6 116 15 97 34 177 108 223 205 22 48 26 69 26
151 0 86 -3 101 -32 163 -20 41 -51 85 -82 115 l-50 48 47 53 c32 36 53 52 66
50 17 -4 16 -6 -5 -33 -23 -30 -18 -58 12 -63 19 -4 28 4 82 70 47 59 57 93
35 115 -17 17 -439 17 -456 0z m43 -157 c19 -8 19 -8 -1 -19 -23 -12 -50 0
-40 17 8 12 13 13 41 2z m-65 -10 c0 -5 -6 -11 -12 -14 -18 -6 -39 3 -32 14 7
12 44 12 44 0z m160 -14 c0 -8 -8 -22 -19 -31 -16 -14 -23 -15 -45 -4 l-27 12
23 18 c27 21 68 24 68 5z m-230 -7 c19 -12 12 -18 -73 -65 -68 -37 -69 -37
-65 -14 2 17 20 34 58 56 60 37 59 36 80 23z m286 -87 c-2 -3 -9 -2 -15 2 -8
4 -7 13 1 28 l13 22 3 -23 c2 -13 1 -26 -2 -29z m88 3 c9 -13 7 -20 -7 -31
-30 -22 -47 -8 -47 37 0 39 1 40 22 26 12 -8 27 -22 32 -32z m-304 -90 l0
-104 -90 51 c-49 29 -90 54 -90 57 0 6 161 98 173 99 4 1 7 -46 7 -103z m118
54 c45 -25 82 -47 82 -50 0 -3 -41 -28 -90 -57 l-90 -51 0 105 c0 57 3 103 8
101 4 -1 44 -23 90 -48z m-348 16 c0 -8 -7 -16 -15 -20 -12 -4 -13 -2 -2 14
14 24 17 25 17 6z m607 -122 c-7 -7 -99 47 -104 62 -2 6 11 17 29 26 l33 16
24 -49 c14 -27 22 -51 18 -55z m-633 67 c6 -10 -22 -37 -29 -29 -8 7 5 38 15
38 5 0 11 -4 14 -9z m6 -141 l0 -99 -36 21 -36 21 6 61 c5 47 11 65 29 78 12
10 25 18 30 18 4 0 7 -45 7 -100z m224 -1 c-6 -11 -130 -79 -143 -79 -7 0 -11
32 -11 90 l0 89 79 -46 c44 -26 78 -50 75 -54z m226 11 c0 -108 -1 -108 -101
-48 l-70 41 83 48 c46 27 84 49 86 49 1 0 2 -40 2 -90z m183 17 c9 -10 17 -25
17 -32 0 -12 -107 -85 -124 -85 -3 0 -6 43 -6 95 l0 96 48 -27 c26 -15 55 -36
65 -47z m-383 -122 c0 -41 -3 -75 -6 -75 -15 0 -124 65 -122 72 3 9 108 76
121 77 4 1 7 -33 7 -74z m89 39 c34 -20 61 -39 61 -43 0 -6 -113 -71 -124 -71
-3 0 -6 34 -6 75 0 41 2 75 4 75 3 0 32 -16 65 -36z m300 -36 c-4 -24 -12 -55
-18 -70 l-10 -27 -46 25 c-25 14 -45 29 -45 34 0 6 109 75 126 80 1 0 -2 -19
-7 -42z m-639 -36 c0 -9 -40 -35 -46 -29 -2 2 -7 18 -10 36 l-7 33 32 -16 c17
-9 31 -20 31 -24z m18 -104 l-3 -33 -24 39 -24 39 24 18 c24 18 24 18 27 -6 2
-14 2 -39 0 -57z m161 3 c24 -15 43 -31 42 -36 -1 -6 -28 -25 -60 -43 l-59
-33 -31 27 c-29 24 -31 30 -31 96 l0 70 48 -28 c26 -15 67 -39 91 -53z m289
-23 c-2 -75 -6 -93 -19 -96 -24 -5 -162 79 -150 91 13 13 154 97 164 97 4 0 6
-42 5 -92z m89 66 l44 -25 -20 -27 c-10 -15 -33 -40 -50 -56 l-31 -30 0 82 c0
45 3 82 7 82 3 0 26 -12 50 -26z m-307 -149 l0 -54 -32 6 c-18 3 -46 12 -62
18 l-28 12 58 36 c33 20 60 37 62 37 1 0 2 -25 2 -55z m95 8 c74 -42 71 -51
-20 -60 l-55 -6 0 52 c0 28 2 51 5 51 3 0 35 -17 70 -37z"/>
<path d="M1167 748 c-11 -9 -28 -77 -56 -233 -23 -120 -41 -223 -41 -228 0 -4
23 -7 52 -5 l52 3 18 100 c53 300 51 293 59 255 4 -19 13 -88 20 -154 8 -72
18 -123 26 -132 19 -18 117 -19 132 -1 6 8 37 83 70 168 33 85 60 144 61 132
0 -22 -25 -270 -35 -335 l-5 -38 55 0 c30 0 55 3 55 8 0 4 9 106 21 226 22
213 22 219 4 232 -28 21 -128 18 -153 -3 -12 -11 -46 -84 -79 -173 l-57 -154
-18 159 c-20 183 -21 185 -108 185 -31 0 -64 -6 -73 -12z"/>
<path d="M2067 573 c-34 -240 -34 -256 0 -283 21 -17 38 -20 82 -18 l56 3 3
42 c3 42 2 43 -27 43 -38 0 -38 -9 -6 210 14 95 25 176 25 181 0 5 -24 9 -53
9 l-54 0 -26 -187z"/>
<path d="M3045 748 c-2 -7 -18 -114 -35 -237 -25 -182 -29 -226 -18 -233 21
-14 278 -4 311 12 80 39 87 207 11 226 l-26 7 30 13 c38 16 62 60 62 114 0 90
-37 110 -210 110 -88 0 -122 -3 -125 -12z m203 -74 c18 -5 22 -13 22 -44 0
-48 -18 -62 -87 -68 l-56 -5 6 48 c4 26 7 54 7 61 0 15 65 19 108 8z m-20
-190 c30 -8 37 -43 18 -88 l-15 -36 -66 0 -66 0 7 58 c3 31 8 60 11 65 5 8 79
9 111 1z"/>
<path d="M3455 748 c-6 -16 -65 -424 -65 -449 0 -16 8 -19 55 -19 30 0 55 4
55 9 0 5 14 102 30 216 40 275 41 255 -20 255 -31 0 -52 -5 -55 -12z"/>
<path d="M3586 748 c-3 -7 -7 -28 -10 -45 l-5 -33 69 0 c84 0 81 17 45 -215
-13 -88 -25 -163 -25 -167 0 -5 25 -8 55 -8 64 0 56 -19 85 195 30 217 19 195
99 195 74 0 80 6 81 68 l0 22 -195 0 c-148 0 -197 -3 -199 -12z"/>
<path d="M1785 615 c-74 -26 -105 -86 -105 -201 0 -101 52 -144 172 -144 58 0
134 12 144 23 2 2 1 19 -2 37 l-7 33 -71 -6 c-76 -7 -118 5 -124 34 -2 13 12
17 77 22 85 7 134 25 151 56 13 26 13 87 -1 113 -24 45 -149 63 -234 33z m140
-75 c11 -18 -6 -50 -28 -54 -86 -18 -97 -17 -97 4 0 33 35 60 79 60 22 0 43
-5 46 -10z"/>
<path d="M2320 608 c-55 -28 -87 -86 -96 -173 -10 -111 43 -165 164 -165 112
0 161 36 188 140 28 108 4 182 -67 207 -57 20 -139 16 -189 -9z m144 -74 c19
-18 19 -25 6 -94 -13 -69 -32 -90 -82 -90 -31 0 -40 4 -47 23 -9 22 0 103 15
140 13 35 81 48 108 21z"/>
<path d="M2805 610 c-22 -11 -50 -27 -62 -36 -23 -16 -23 -16 -23 15 0 30 -2
31 -40 31 -33 0 -40 -4 -45 -22 -4 -21 -45 -303 -45 -314 0 -2 24 -4 54 -4
l54 0 12 88 c14 113 21 127 69 152 56 28 71 26 71 -9 0 -31 -17 -170 -25 -208
-5 -22 -2 -23 50 -23 30 0 55 2 55 4 0 3 9 66 20 140 22 148 18 175 -27 195
-35 16 -73 13 -118 -9z"/>
</g>
</svg>
